<?xml version="1.0" standalone="no"?>
<!DOCTYPE svg PUBLIC "-//W3C//DTD SVG 20010904//EN"
 "http://www.w3.org/TR/2001/REC-SVG-20010904/DTD/svg10.dtd">
<svg version="1.0" xmlns="http://www.w3.org/2000/svg"
 width="200.000000pt" height="200.000000pt" viewBox="0 0 200.000000 200.000000"
 preserveAspectRatio="xMidYMid meet">

<g transform="translate(0.000000,200.000000) scale(0.100000,-0.100000)"
fill="#000000" stroke="none">
<path d="M0 1184 c0 -713 2 -815 15 -811 8 4 67 17 132 31 478 100 1177 100
1655 0 64 -14 135 -31 157 -39 l41 -14 0 824 0 825 -1000 0 -1000 0 0 -816z
m1106 525 c434 -80 604 -616 294 -930 -79 -80 -153 -123 -256 -149 -304 -78
-607 106 -679 413 -90 381 252 737 641 666z"/>
</g>
</svg>
